<svg width="99" height="30" viewBox="0 0 99 30" fill="none" xmlns="http://www.w3.org/2000/svg">
<path d="M42.3516 13.6204L41.2957 13.1102L44.6294 5.14973C44.7481 4.87291 44.9418 4.7345 45.2107 4.7345C45.4955 4.7345 45.6892 4.87291 45.7921 5.14973L49.1376 13.134L48.1529 13.6204L45.1396 6.31236H45.3056L42.3516 13.6204ZM41.0229 16.1117C40.8489 16.1117 40.7026 16.0524 40.5839 15.9338C40.4653 15.8151 40.406 15.6688 40.406 15.4948V13.5255C40.406 13.3435 40.4653 13.1972 40.5839 13.0865C40.7026 12.9679 40.8489 12.9085 41.0229 12.9085H49.3749C49.5568 12.9085 49.7031 12.9679 49.8138 13.0865C49.9325 13.1972 49.9918 13.3435 49.9918 13.5255V15.4948C49.9918 15.6688 49.9325 15.8151 49.8138 15.9338C49.7031 16.0524 49.5568 16.1117 49.3749 16.1117C49.2009 16.1117 49.0546 16.0524 48.9359 15.9338C48.8173 15.8151 48.758 15.6688 48.758 15.4948V14H41.6398V15.4948C41.6398 15.6688 41.5805 15.8151 41.4618 15.9338C41.3511 16.0524 41.2048 16.1117 41.0229 16.1117ZM58.135 14.1186C57.439 14.1186 56.8023 14.004 56.2249 13.7746C55.6476 13.5373 55.1493 13.2091 54.7301 12.7899C54.3188 12.3628 53.9985 11.8606 53.7691 11.2832C53.5398 10.698 53.4251 10.0573 53.4251 9.36132C53.4251 8.66532 53.5398 8.02864 53.7691 7.45127C53.9985 6.87391 54.3188 6.37564 54.7301 5.95645C55.1493 5.52936 55.6476 5.20114 56.2249 4.97177C56.8023 4.7345 57.439 4.61586 58.135 4.61586C58.831 4.61586 59.4637 4.7345 60.0331 4.97177C60.6105 5.20114 61.1088 5.52936 61.528 5.95645C61.9471 6.37564 62.2714 6.87391 62.5008 7.45127C62.7301 8.02864 62.8448 8.66532 62.8448 9.36132C62.8448 10.0573 62.7301 10.698 62.5008 11.2832C62.2714 11.8606 61.9471 12.3628 61.528 12.7899C61.1088 13.2091 60.6105 13.5373 60.0331 13.7746C59.4637 14.004 58.831 14.1186 58.135 14.1186ZM58.135 13.0035C58.6491 13.0035 59.1196 12.9125 59.5467 12.7306C59.9817 12.5408 60.3574 12.2837 60.6738 11.9595C60.9901 11.6273 61.2314 11.2397 61.3975 10.7968C61.5715 10.3539 61.6585 9.87541 61.6585 9.36132C61.6585 8.84723 61.5715 8.36873 61.3975 7.92582C61.2314 7.48291 60.9901 7.09932 60.6738 6.77505C60.3574 6.44286 59.9817 6.18582 59.5467 6.00391C59.1196 5.822 58.6491 5.73105 58.135 5.73105C57.6209 5.73105 57.1463 5.822 56.7113 6.00391C56.2842 6.18582 55.9125 6.44286 55.5961 6.77505C55.2877 7.09932 55.0465 7.48291 54.8725 7.92582C54.6985 8.36873 54.6115 8.84723 54.6115 9.36132C54.6115 9.87541 54.6985 10.3539 54.8725 10.7968C55.0465 11.2397 55.2877 11.6273 55.5961 11.9595C55.9125 12.2837 56.2842 12.5408 56.7113 12.7306C57.1463 12.9125 57.6209 13.0035 58.135 13.0035ZM67.767 14C67.593 14 67.4467 13.9407 67.3281 13.822C67.2094 13.7034 67.1501 13.5571 67.1501 13.3831V5.35141C67.1501 5.1695 67.2094 5.02318 67.3281 4.91245C67.4467 4.79382 67.593 4.7345 67.767 4.7345H72.7972C72.9554 4.7345 73.0859 4.78986 73.1887 4.90059C73.2994 5.00341 73.3548 5.14182 73.3548 5.31582C73.3548 5.474 73.2994 5.60845 73.1887 5.71918C73.0859 5.822 72.9554 5.87341 72.7972 5.87341H68.3839V8.54273H71.0889C71.682 8.54273 72.208 8.65741 72.6667 8.88677C73.1254 9.10823 73.4814 9.42064 73.7344 9.824C73.9954 10.2195 74.1259 10.6782 74.1259 11.2002C74.1259 11.7459 73.9954 12.2284 73.7344 12.6475C73.4814 13.0667 73.1254 13.3989 72.6667 13.6441C72.208 13.8814 71.682 14 71.0889 14H67.767ZM68.3839 12.8611H71.0889C71.4527 12.8611 71.773 12.7978 72.0498 12.6713C72.3266 12.5447 72.5441 12.3589 72.7023 12.1137C72.8605 11.8685 72.9396 11.564 72.9396 11.2002C72.9396 10.8364 72.8605 10.5398 72.7023 10.3104C72.5441 10.0731 72.3266 9.89914 72.0498 9.78841C71.773 9.66977 71.4527 9.61045 71.0889 9.61045H68.3839V12.8611ZM78.9564 14C78.7824 14 78.6361 13.9407 78.5174 13.822C78.3988 13.7034 78.3395 13.5571 78.3395 13.3831V5.35141C78.3395 5.1695 78.3988 5.02318 78.5174 4.91245C78.6361 4.79382 78.7824 4.7345 78.9564 4.7345H81.3291C81.9223 4.7345 82.4483 4.865 82.907 5.126C83.3657 5.387 83.7216 5.75082 83.9747 6.21745C84.2357 6.67618 84.3662 7.20609 84.3662 7.80718C84.3662 8.38455 84.2357 8.89864 83.9747 9.34945C83.7216 9.80027 83.3657 10.1522 82.907 10.4053C82.4483 10.6584 81.9223 10.785 81.3291 10.785H79.5733V13.3831C79.5733 13.5571 79.514 13.7034 79.3953 13.822C79.2846 13.9407 79.1383 14 78.9564 14ZM79.5733 9.64605H81.3291C81.6929 9.64605 82.0133 9.56695 82.2901 9.40877C82.5669 9.25059 82.7844 9.03309 82.9426 8.75627C83.1008 8.47945 83.1798 8.16309 83.1798 7.80718C83.1798 7.42755 83.1008 7.09536 82.9426 6.81064C82.7844 6.518 82.5669 6.28864 82.2901 6.12255C82.0133 5.95645 81.6929 5.87341 81.3291 5.87341H79.5733V9.64605ZM92.3866 14.1186C91.6906 14.1186 91.0539 14.004 90.4765 13.7746C89.8992 13.5373 89.4009 13.2091 88.9817 12.7899C88.5704 12.3628 88.2501 11.8606 88.0208 11.2832C87.7914 10.698 87.6767 10.0573 87.6767 9.36132C87.6767 8.66532 87.7914 8.02864 88.0208 7.45127C88.2501 6.87391 88.5704 6.37564 88.9817 5.95645C89.4009 5.52936 89.8992 5.20114 90.4765 4.97177C91.0539 4.7345 91.6906 4.61586 92.3866 4.61586C93.0826 4.61586 93.7153 4.7345 94.2848 4.97177C94.8621 5.20114 95.3604 5.52936 95.7796 5.95645C96.1988 6.37564 96.523 6.87391 96.7524 7.45127C96.9818 8.02864 97.0964 8.66532 97.0964 9.36132C97.0964 10.0573 96.9818 10.698 96.7524 11.2832C96.523 11.8606 96.1988 12.3628 95.7796 12.7899C95.3604 13.2091 94.8621 13.5373 94.2848 13.7746C93.7153 14.004 93.0826 14.1186 92.3866 14.1186ZM92.3866 13.0035C92.9007 13.0035 93.3713 12.9125 93.7984 12.7306C94.2334 12.5408 94.609 12.2837 94.9254 11.9595C95.2418 11.6273 95.483 11.2397 95.6491 10.7968C95.8231 10.3539 95.9101 9.87541 95.9101 9.36132C95.9101 8.84723 95.8231 8.36873 95.6491 7.92582C95.483 7.48291 95.2418 7.09932 94.9254 6.77505C94.609 6.44286 94.2334 6.18582 93.7984 6.00391C93.3713 5.822 92.9007 5.73105 92.3866 5.73105C91.8725 5.73105 91.3979 5.822 90.9629 6.00391C90.5359 6.18582 90.1641 6.44286 89.8478 6.77505C89.5393 7.09932 89.2981 7.48291 89.1241 7.92582C88.9501 8.36873 88.8631 8.84723 88.8631 9.36132C88.8631 9.87541 88.9501 10.3539 89.1241 10.7968C89.2981 11.2397 89.5393 11.6273 89.8478 11.9595C90.1641 12.2837 90.5359 12.5408 90.9629 12.7306C91.3979 12.9125 91.8725 13.0035 92.3866 13.0035Z" fill="#322A61"/>
<path d="M41.5881 19.5748H43.3874C44.0113 19.5748 44.532 19.7989 44.9494 20.2471C45.3669 20.6909 45.5756 21.2357 45.5756 21.8817C45.5756 22.5232 45.3669 23.0702 44.9494 23.5228C44.532 23.9666 44.0113 24.1885 43.3874 24.1885H41.5881V19.5748ZM42.201 23.6085H43.3874C43.8575 23.6085 44.242 23.4437 44.5408 23.1142C44.8396 22.7802 44.989 22.3694 44.989 21.8817C44.989 21.3939 44.8396 20.9831 44.5408 20.6492C44.242 20.3196 43.8575 20.1548 43.3874 20.1548H42.201V23.6085ZM51.4598 24.1885V19.5748H52.0727V24.1885H51.4598ZM60.3454 21.9014H62.6522V22.1782C62.6522 22.7802 62.4457 23.2811 62.0327 23.681C61.6196 24.0764 61.0726 24.2742 60.3915 24.2742C59.6885 24.2742 59.1063 24.0435 58.6449 23.5821C58.188 23.112 57.9595 22.5451 57.9595 21.8817C57.9595 21.2182 58.188 20.6536 58.6449 20.1878C59.1063 19.722 59.6841 19.4892 60.3783 19.4892C60.8002 19.4892 61.1912 19.5924 61.5515 19.7989C61.9162 20.0054 62.1908 20.2735 62.3754 20.603L61.8481 20.9128C61.7163 20.6623 61.5164 20.4624 61.2483 20.313C60.9803 20.1592 60.6881 20.0823 60.3717 20.0823C59.8401 20.0823 59.4073 20.2559 59.0733 20.603C58.735 20.9501 58.5658 21.3764 58.5658 21.8817C58.5658 22.387 58.735 22.8132 59.0733 23.1603C59.4161 23.503 59.8577 23.6744 60.3981 23.6744C60.8507 23.6744 61.2198 23.5645 61.5054 23.3448C61.7954 23.1207 61.9733 22.8242 62.0392 22.4551H60.3454V21.9014ZM68.5385 24.1885V19.5748H69.1514V24.1885H68.5385ZM74.9063 19.5748H78.2348V20.1548H76.8704V24.1885H76.2641V20.1548H74.9063V19.5748ZM87.3385 24.1885H86.686L86.3103 23.1537H84.2342L83.8585 24.1885H83.206L84.9262 19.5748H85.6183L87.3385 24.1885ZM85.269 20.3064L84.4451 22.5803H86.0994L85.269 20.3064ZM93.6366 19.5748V23.6085H95.6271V24.1885H93.0237V19.5748H93.6366Z" fill="#A6A6A6"/>
<path d="M1.74916 7.02664C1.74916 7.02664 6.52699 3.55356 6.82561 4.00657C7.12422 4.45958 0.853318 10.1978 1.00262 10.4997C1.15193 10.8017 9.36383 4.61059 9.66215 4.91259C9.96047 5.2146 1.45055 13.5198 1.59985 13.8218C1.74916 14.1237 11.3048 5.81861 11.4538 6.12056C11.6029 6.42252 3.09322 15.9359 3.39154 16.0868C3.68986 16.2378 12.648 7.17753 12.9469 7.47959C13.2458 7.78165 5.18264 18.0498 5.48155 18.2008C5.78046 18.3519 17.4264 4.91259 17.7247 5.2146C18.0231 5.51661 6.97521 19.862 7.27353 20.1639C7.57185 20.4659 21.1591 4.15758 21.6067 4.30853C22.0544 4.45948 8.9162 22.127 9.21452 22.429C9.51284 22.7309 24.1455 4.91265 24.4439 5.2146C24.7422 5.51655 11.0065 24.392 11.3048 24.694C11.6031 24.996 26.2353 7.63065 26.6835 7.93266C27.1317 8.23466 13.5444 25.9021 13.5444 26.355C13.5444 26.808 26.6835 13.0668 26.6835 13.0668" stroke="#4F80FF" stroke-width="1.64773" stroke-linecap="round"/>
<path d="M7.6769 7.02664C7.6769 7.02664 12.4547 3.55356 12.7533 4.00657C13.052 4.45958 6.78105 10.1978 6.93036 10.4997C7.07967 10.8017 15.2916 4.61059 15.5899 4.91259C15.8882 5.2146 7.37828 13.5198 7.52759 13.8218C7.6769 14.1237 17.2326 5.81861 17.3816 6.12056C17.5306 6.42252 9.02095 15.9359 9.31928 16.0868C9.6176 16.2378 18.5757 7.17753 18.8746 7.47959C19.1736 7.78165 11.1104 18.0498 11.4093 18.2008C11.7082 18.3519 23.3542 4.91259 23.6525 5.2146C23.9508 5.51661 12.9029 19.862 13.2013 20.1639C13.4996 20.4659 27.0868 4.15758 27.5345 4.30853C27.9821 4.45948 14.8439 22.127 15.1423 22.429C15.4406 22.7309 30.0733 4.91265 30.3716 5.2146C30.6699 5.51655 16.9342 24.392 17.2326 24.694C17.5309 24.996 32.163 7.63065 32.6112 7.93266C33.0594 8.23466 19.4722 25.9021 19.4722 26.355C19.4722 26.808 32.6112 13.0668 32.6112 13.0668" stroke="#FFA34F" stroke-width="1.64773" stroke-linecap="round"/>
<path d="M4.71693 4.0158C4.71693 4.0158 9.49477 0.593807 9.79338 1.04015C10.092 1.4865 3.82109 7.14029 3.9704 7.4378C4.11971 7.73531 12.3316 1.63528 12.6299 1.93285C12.9282 2.23041 4.41832 10.4135 4.56763 10.711C4.71693 11.0085 14.2726 2.82554 14.4216 3.12306C14.5706 3.42057 6.06099 12.794 6.35931 12.9428C6.65764 13.0915 15.6158 4.16448 15.9147 4.4621C16.2136 4.75972 8.15042 14.8768 8.44932 15.0257C8.74823 15.1745 20.3942 1.93285 20.6925 2.23041C20.9908 2.52798 9.94298 16.6624 10.2413 16.9599C10.5396 17.2574 24.1269 1.18894 24.5745 1.33767C25.0221 1.4864 11.884 18.8941 12.1823 19.1916C12.4806 19.4891 27.1133 1.9329 27.4116 2.23041C27.71 2.52793 13.9743 21.1258 14.2726 21.4234C14.5709 21.7209 29.203 4.61093 29.6512 4.9085C30.0995 5.20606 16.5122 22.6137 16.5122 23.06C16.5122 23.5063 29.6512 9.9671 29.6512 9.9671" stroke="#E8433F" stroke-width="1.64773" stroke-linecap="round"/>
</svg>
